<svg width="1192" height="315" viewBox="0 0 1192 315" fill="none" xmlns="http://www.w3.org/2000/svg">
<g opacity="0.16">
<path d="M447.739 123.177C439.116 142.055 437.141 161.868 442.271 180.632C431.62 181.022 421.54 184.01 411.882 189.744C398.515 197.506 391.616 211.304 391.616 230.708V328.159H326.936V112.56H391.616V150.936C399.808 123.34 426.974 108.248 456.295 108.248V109.093C455.319 110.126 454.539 111.176 453.964 112.084C451.495 115.985 448.947 120.548 447.739 123.177Z" fill="#80868E"/>
<path d="M496.78 238.398V328.159H561.459V235.956C540.142 245.161 517.103 245.485 496.78 238.398Z" fill="#80868E"/>
<path d="M590.765 215.017C611.955 191.609 619.416 157.196 605.806 126.661C602.451 119.116 597.882 112.134 593.62 106.734L593.61 106.722L593.601 106.71C592.624 105.479 591.68 104.326 590.765 103.243V13.384H655.444V328.159H590.765V215.017Z" fill="#80868E"/>
<path d="M160.406 159.991V220.359H241.04C229.398 251.406 203.957 266.929 163.855 266.929C134.965 266.929 112.112 258.736 94.8636 242.35C77.6157 225.534 68.9917 204.405 68.9917 178.102C68.9917 151.799 77.1845 129.808 94.0012 112.991C110.818 96.1741 132.378 87.5502 157.819 87.5502C190.59 87.5502 218.186 102.211 231.554 122.908L290.197 89.275C264.325 47.8799 214.737 20.2832 158.25 20.2832C113.836 20.2832 76.3221 35.3752 45.707 65.9903C15.0919 96.6054 0 133.688 0 177.671C0 221.653 15.5231 258.736 46.1382 288.92C77.1845 319.104 115.992 334.196 162.993 334.196C206.113 334.196 241.471 320.829 269.499 294.094C297.527 266.929 311.756 231.139 311.756 185.863V159.991H160.406Z" fill="#80868E"/>
<path d="M745.895 328.159V13.384H681.215V328.159H745.895Z" fill="#80868E"/>
<path fill-rule="evenodd" clip-rule="evenodd" d="M985.109 220.359C985.109 229.414 984.247 238.038 982.522 246.231H829.446C836.777 266.497 854.025 276.415 881.19 276.415C898.869 276.415 912.668 270.809 922.585 260.03L974.329 289.782C953.2 319.535 921.723 334.196 880.328 334.196C844.107 334.196 815.217 323.416 793.226 301.856C771.666 280.296 760.886 253.13 760.886 220.359C760.886 188.019 771.666 160.854 792.795 139.294C814.354 117.303 841.951 106.523 875.585 106.523C907.062 106.523 932.934 117.303 953.632 139.294C974.76 160.854 985.109 188.019 985.109 220.359ZM875.153 163.872C850.144 163.872 834.621 175.083 828.153 197.937H920.861C914.393 175.083 899.301 163.872 875.153 163.872Z" fill="#80868E"/>
<path d="M1114.82 218.634L1189.41 112.56H1115.25L1077.73 166.028L1040.22 112.56H966.052L1040.65 218.634L963.465 328.159H1037.63L1077.73 271.241L1117.83 328.159H1192L1114.82 218.634Z" fill="#80868E"/>
</g>
<g filter="url(#filter0_d_2339_19377)">
<path fill-rule="evenodd" clip-rule="evenodd" d="M470.338 119.467C469.876 114.008 465.876 113.084 462.926 117.745C460.597 121.425 458.32 125.54 457.381 127.584C446.883 150.565 447.614 174.54 460.113 195.663C479.972 229.192 523.044 242.462 559.812 225.056C594.93 208.436 611.921 166.4 596.12 130.96C593.198 124.391 589.14 118.161 585.298 113.293C573.123 97.9548 566.955 96.332 556.268 84.6845C554.13 82.355 551.831 80.4966 549.45 77.4081C547.313 74.6336 545.31 72.3827 543.065 69.2941C539.385 64.1901 535.625 57.4634 533.866 50.0299C529.916 33.3047 541.144 20.8196 541.171 16.0821C541.198 10.8734 533.379 15.2707 531.647 16.3177C513.304 27.5725 501.643 50.0038 503.618 74.0316C505.133 92.275 510.626 102.902 518.499 115.884C526.778 129.573 532.649 143.576 520.555 156.847C510.274 168.101 489.522 166.767 480.729 155.276C472.261 144.257 471.151 129.087 470.338 119.467Z" stroke="#E4121F" stroke-width="4" shape-rendering="crispEdges"/>
</g>
<defs>
<filter id="filter0_d_2339_19377" x="433.074" y="0.587158" width="185.982" height="253.133" filterUnits="userSpaceOnUse" color-interpolation-filters="sRGB">
<feFlood flood-opacity="0" result="BackgroundImageFix"/>
<feColorMatrix in="SourceAlpha" type="matrix" values="0 0 0 0 0 0 0 0 0 0 0 0 0 0 0 0 0 0 127 0" result="hardAlpha"/>
<feOffset dy="4"/>
<feGaussianBlur stdDeviation="7.5"/>
<feComposite in2="hardAlpha" operator="out"/>
<feColorMatrix type="matrix" values="0 0 0 0 1 0 0 0 0 0.267327 0 0 0 0 0 0 0 0 1 0"/>
<feBlend mode="normal" in2="BackgroundImageFix" result="effect1_dropShadow_2339_19377"/>
<feBlend mode="normal" in="SourceGraphic" in2="effect1_dropShadow_2339_19377" result="shape"/>
</filter>
</defs>
</svg>
