<svg width="164" height="44" viewBox="0 0 164 44" fill="none" xmlns="http://www.w3.org/2000/svg">
<path d="M61.5616 15.0584C60.379 17.6475 60.1081 20.365 60.8117 22.9384C59.3509 22.9919 57.9684 23.4017 56.6438 24.1882C54.8105 25.2527 53.8642 27.1452 53.8642 29.8064V43.172H44.9933V13.6021H53.8642V18.8656C54.9879 15.0806 58.7137 13.0107 62.7352 13.0107V13.1267C62.6013 13.2684 62.4943 13.4124 62.4155 13.5369C62.0768 14.072 61.7273 14.6978 61.5616 15.0584Z" fill="#F9F9F9"/>
<path d="M68.2877 30.8612V43.172H77.1587V30.5262C74.2349 31.7887 71.075 31.8332 68.2877 30.8612Z" fill="#F9F9F9"/>
<path d="M81.1779 27.6543C84.0842 24.4439 85.1075 19.7242 83.241 15.5361C82.7807 14.5013 82.1541 13.5438 81.5695 12.8031L81.5682 12.8015L81.567 12.7998C81.4329 12.631 81.3034 12.4729 81.1779 12.3244V0H90.0489V43.172H81.1779V27.6543Z" fill="#F9F9F9"/>
<path d="M22.1533 20.1075V28.3871H33.2125C31.6157 32.6452 28.1264 34.7742 22.6264 34.7742C18.6641 34.7742 15.5297 33.6505 13.1641 31.4032C10.7985 29.0968 9.61568 26.1989 9.61568 22.5914C9.61568 18.9839 10.7393 15.9677 13.0458 13.6613C15.3522 11.3548 18.3092 10.172 21.7985 10.172C26.2931 10.172 30.078 12.1828 31.9114 15.0215L39.9544 10.4086C36.406 4.73118 29.6049 0.946236 21.8576 0.946236C15.7662 0.946236 10.6211 3.01613 6.42214 7.21506C2.22321 11.414 0.15332 16.5 0.15332 22.5323C0.15332 28.5645 2.28235 33.6505 6.48128 37.7903C10.7393 41.9301 16.0619 44 22.5082 44C28.4221 44 33.2716 42.1667 37.1157 38.5C40.9598 34.7742 42.9114 29.8656 42.9114 23.6559V20.1075H22.1533Z" fill="#F9F9F9"/>
<path d="M102.454 43.172V0H93.5834V43.172H102.454Z" fill="#F9F9F9"/>
<path fill-rule="evenodd" clip-rule="evenodd" d="M135.263 28.3871C135.263 29.629 135.145 30.8118 134.908 31.9355H113.914C114.919 34.715 117.285 36.0753 121.01 36.0753C123.435 36.0753 125.328 35.3064 126.688 33.8279L133.785 37.9086C130.887 41.9892 126.57 44 120.892 44C115.924 44 111.962 42.5215 108.946 39.5645C105.989 36.6075 104.51 32.8817 104.51 28.3871C104.51 23.9516 105.989 20.2258 108.887 17.2688C111.844 14.2527 115.629 12.7742 120.242 12.7742C124.559 12.7742 128.107 14.2527 130.946 17.2688C133.844 20.2258 135.263 23.9516 135.263 28.3871ZM120.182 20.6398C116.752 20.6398 114.623 22.1774 113.736 25.3118H126.451C125.564 22.1774 123.494 20.6398 120.182 20.6398Z" fill="#F9F9F9"/>
<path d="M153.053 28.1505L163.284 13.6021H153.112L147.967 20.9355L142.821 13.6021H132.649L142.881 28.1505L132.295 43.172H142.467L147.967 35.3656L153.467 43.172H163.639L153.053 28.1505Z" fill="#F9F9F9"/>
<g clip-path="url(#clip0_2507_2888)">
<path fill-rule="evenodd" clip-rule="evenodd" d="M64.66 14.55C64.5967 13.8013 64.0481 13.6745 63.6435 14.3138C63.3241 14.8185 63.0117 15.383 62.883 15.6632C61.4432 18.8151 61.5434 22.1034 63.2577 25.0004C65.9814 29.599 71.8888 31.4191 76.9316 29.0318C81.7481 26.7523 84.0784 20.987 81.9114 16.1263C81.5106 15.2253 80.954 14.3709 80.4271 13.7032C78.7573 11.5996 77.9113 11.377 76.4455 9.77951C76.1524 9.46001 75.837 9.20513 75.5104 8.78153C75.2173 8.40101 74.9427 8.09228 74.6347 7.66868C74.1301 6.96866 73.6143 6.04607 73.3731 5.02656C72.8313 2.73265 74.3713 1.0203 74.375 0.370539C74.3787 -0.343839 73.3063 0.259254 73.0688 0.402847C70.553 1.94648 68.9537 5.02297 69.2245 8.31844C69.4323 10.8206 70.1856 12.278 71.2654 14.0586C72.4009 15.9361 73.2061 17.8566 71.5474 19.6767C70.1374 21.2203 67.2913 21.0372 66.0853 19.4613C64.9238 17.95 64.7716 15.8694 64.66 14.55Z" fill="url(#paint0_linear_2507_2888)"/>
</g>
<defs>
<linearGradient id="paint0_linear_2507_2888" x1="65.1484" y1="1.27718" x2="56.111" y2="37.244" gradientUnits="userSpaceOnUse">
<stop stop-color="#F0C734"/>
<stop offset="0.666667" stop-color="#C73A1D"/>
<stop offset="1" stop-color="#D28000"/>
</linearGradient>
<clipPath id="clip0_2507_2888">
<rect width="20.8443" height="30.0546" fill="white" transform="translate(61.8809 0.0288086)"/>
</clipPath>
</defs>
</svg>
