<svg width="13" height="18" viewBox="0 0 13 18" fill="none" xmlns="http://www.w3.org/2000/svg">
<path fill-rule="evenodd" clip-rule="evenodd" d="M1.73328 8.69719C1.69379 8.24876 1.35164 8.17284 1.0993 8.55572C0.90009 8.85799 0.705285 9.19604 0.624981 9.36391C-0.272948 11.2516 -0.210461 13.221 0.858722 14.956C2.55738 17.7102 6.24166 18.8002 9.38672 17.3705C12.3906 16.0052 13.844 12.5523 12.4924 9.64125C12.2425 9.10161 11.8954 8.58991 11.5667 8.19001C10.5253 6.93012 9.99769 6.79682 9.08356 5.84008C8.90073 5.64873 8.70402 5.49608 8.50037 5.24238C8.31754 5.01448 8.14629 4.82958 7.9542 4.57588C7.63947 4.15664 7.31779 3.60409 7.16736 2.99349C6.82948 1.61965 7.78989 0.594106 7.79221 0.204958C7.79452 -0.22289 7.1257 0.138308 6.97759 0.224308C5.40853 1.1488 4.41109 2.99134 4.58003 4.96503C4.70963 6.46357 5.17942 7.33647 5.85287 8.40286C6.56103 9.5273 7.06322 10.6775 6.02875 11.7676C5.14934 12.6921 3.37431 12.5824 2.62218 11.6386C1.89777 10.7335 1.80288 9.48737 1.73328 8.69719Z" fill="#E4121F"/>
</svg>
