<svg xmlns="http://www.w3.org/2000/svg" style="display: none">
    <symbol id="catalog" viewBox="0 0 32 32" fill="none">
        <svg width="32" height="32" viewBox="0 0 32 32" fill="none" xmlns="http://www.w3.org/2000/svg">
            <mask id="path-1-inside-1_2728_10192" fill="var(--icon-color, currentColor)">
                <rect x="5" y="5" width="10" height="10" rx="1" />
            </mask>
            <rect x="5" y="5" width="10" height="10" rx="1" stroke="var(--icon-color, currentColor)" stroke-width="1.5"
                mask="url(#path-1-inside-1_2728_10192)" />
            <mask id="path-2-inside-2_2728_10192" fill="var(--icon-color, currentColor)">
                <rect x="5" y="17" width="10" height="10" rx="1" />
            </mask>
            <rect x="5" y="17" width="10" height="10" rx="1" stroke="var(--icon-color, currentColor)" stroke-width="1.5"
                mask="url(#path-2-inside-2_2728_10192)" />
            <rect x="22" y="3.99035" width="8.5" height="8.5" rx="4.25" transform="rotate(45 22 3.99035)"
                stroke="var(--icon-color, currentColor)" stroke-width="1.5" />
            <mask id="path-4-inside-3_2728_10192" fill="var(--icon-color, currentColor)">
                <rect x="17" y="17" width="10" height="10" rx="1" />
            </mask>
            <rect x="17" y="17" width="10" height="10" rx="1" stroke="var(--icon-color, currentColor)"
                stroke-width="1.5" mask="url(#path-4-inside-3_2728_10192)" />
        </svg>
    </symbol>
    <symbol id="search" viewBox="0 0 20 20">
        <path
            d="M9 17C13.4183 17 17 13.4183 17 9C17 4.58172 13.4183 1 9 1C4.58172 1 1 4.58172 1 9C1 13.4183 4.58172 17 9 17Z"
            stroke="var(--icon-color, currentColor)" stroke-width="1.5" stroke-linecap="round" />
        <path d="M19.0004 18.9984L14.6504 14.6484" stroke="var(--icon-color, currentColor)" stroke-width="1.5"
            stroke-linecap="round" />
    </symbol>
    <symbol id="bottom-navigation-bar-search" viewBox="0 0 41 40">

        <path
            d="M18.5 31C25.4036 31 31 25.4036 31 18.5C31 11.5964 25.4036 6 18.5 6C11.5964 6 6 11.5964 6 18.5C6 25.4036 11.5964 31 18.5 31Z"
            stroke="var(--icon-color, currentColor)" stroke-width="1.5" stroke-linecap="round" />
        <path d="M34 34L28 28" stroke="var(--icon-color, currentColor)" stroke-width="1.5" stroke-linecap="round" />

    </symbol>
    <symbol id="like" viewBox="0 0 40 40" fill="none">
        <path
            d="M31.8409 10.0334C31.1568 9.38873 30.3445 8.87736 29.4504 8.52847C28.5563 8.17958 27.598 8 26.6302 8C25.6625 8 24.7042 8.17958 23.8101 8.52847C22.916 8.87736 22.1037 9.38873 21.4195 10.0334L19.9996 11.3706L18.5798 10.0334C17.1978 8.73186 15.3234 8.00067 13.3691 8.00067C11.4147 8.00067 9.54031 8.73186 8.15835 10.0334C6.77638 11.3349 6 13.1001 6 14.9407C6 16.7813 6.77638 18.5466 8.15835 19.8481L9.57823 21.1853L19.9996 31L30.4211 21.1853L31.8409 19.8481C32.5254 19.2037 33.0684 18.4387 33.4389 17.5967C33.8093 16.7547 34 15.8522 34 14.9407C34 14.0293 33.8093 13.1268 33.4389 12.2848C33.0684 11.4427 32.5254 10.6777 31.8409 10.0334V10.0334Z"
            stroke="var(--icon-color, currentColor)" stroke-width="var(--icon-stroke-width, 1.5)" stroke-linecap="round"
            stroke-linejoin="round" />
    </symbol>
    <symbol id="product-card-like" viewBox="0 0 32 32" fill="none">
        <path
            d="M23.112 9.82611C22.6722 9.40569 22.15 9.07219 21.5752 8.84465C21.0005 8.61711 20.3844 8.5 19.7623 8.5C19.1401 8.5 18.5241 8.61711 17.9493 8.84465C17.3746 9.07219 16.8524 9.40569 16.4126 9.82611L15.4998 10.6982L14.587 9.82611C13.6986 8.9773 12.4936 8.50044 11.2372 8.50044C9.98085 8.50044 8.77591 8.9773 7.88751 9.82611C6.9991 10.6749 6.5 11.8262 6.5 13.0266C6.5 14.227 6.9991 15.3782 7.88751 16.227L8.80029 17.0991L15.4998 23.5L22.1992 17.0991L23.112 16.227C23.5521 15.8068 23.9011 15.3079 24.1393 14.7587C24.3774 14.2096 24.5 13.621 24.5 13.0266C24.5 12.4321 24.3774 11.8435 24.1393 11.2944C23.9011 10.7453 23.5521 10.2463 23.112 9.82611V9.82611Z"
            stroke="var(--icon-color, currentColor)" fill="var(--fill-color, none)" stroke-width="1.5"
            stroke-linecap="round" stroke-linejoin="round" />
    </symbol>

    <symbol id="compare" viewBox="0 0 40 40" fill="none">
        <path fill-rule="evenodd" clip-rule="evenodd"
            d="M8.1004 24.5369C10.9133 24.5369 13.2768 23.0298 13.9469 20.9902H2.25391C2.92404 23.0298 5.28755 24.5369 8.1004 24.5369Z"
            stroke="var(--icon-color, currentColor)" fill="var(--fill-color, none)"
            stroke-width="var(--icon-stroke-width, 1.5)" stroke-linecap="round" stroke-linejoin="round" />
        <path d="M12.8167 20.989L7.94096 11.5312L3.76172 20.989" stroke="var(--icon-color, currentColor)"
            stroke-width="var(--icon-stroke-width, 1.5)" stroke-linecap="round" stroke-linejoin="round" />
        <path fill-rule="evenodd" clip-rule="evenodd"
            d="M32.2508 31.1111C35.0636 31.1111 37.4272 29.6041 38.0973 27.5645H26.4043C27.0744 29.6041 29.4379 31.1111 32.2508 31.1111Z"
            stroke-width="var(--icon-stroke-width, 1.5)" stroke-linecap="round" stroke-linejoin="round"
            fill="var(--fill-color, none)" stroke="var(--icon-color, currentColor)" />
        <path d="M36.9691 27.5632L32.0933 18.1055L27.9141 27.5632" stroke="var(--icon-color, currentColor)"
            stroke-width="var(--icon-stroke-width, 1.5)" stroke-linecap="round" stroke-linejoin="round" />
        <path
            d="M19.4322 16.0799C21.3927 16.6862 23.4734 15.5885 24.0797 13.628C24.686 11.6676 23.5882 9.58688 21.6278 8.98059C19.6674 8.37431 17.5866 9.47206 16.9803 11.4325C16.3741 13.3929 17.4718 15.4737 19.4322 16.0799Z"
            stroke-width="var(--icon-stroke-width, 1.5)" stroke-linejoin="bevel" fill="var(--fill-color, none)"
            stroke="var(--icon-color, currentColor)" />
        <path d="M7.57422 8.81641L16.8631 11.6031" stroke-width="var(--icon-stroke-width, 1.5)" stroke-linecap="round"
            stroke-linejoin="round" stroke="var(--icon-color, currentColor)" />
        <path d="M24.293 13.4609L33.5818 16.2476" stroke-width="var(--icon-stroke-width, 1.5)" stroke-linecap="round"
            stroke-linejoin="round" stroke="var(--icon-color, currentColor)" />
    </symbol>
    <svg width="32" height="32" viewBox="0 0 32 32" fill="none" xmlns="http://www.w3.org/2000/svg">
        <path fill-rule="evenodd" clip-rule="evenodd"
            d="M6.25177 20.9642C8.40637 20.9642 10.2168 19.8099 10.7301 18.2476H1.77344C2.28675 19.8099 4.09717 20.9642 6.25177 20.9642Z"
            stroke="#80868E" stroke-width="1.33334" stroke-linecap="round" stroke-linejoin="round" />
        <path d="M9.86472 18.2474L6.12995 11.0029L2.92871 18.2474" stroke="#80868E" stroke-width="1.33334"
            stroke-linecap="round" stroke-linejoin="round" />
        <path fill-rule="evenodd" clip-rule="evenodd"
            d="M24.7488 25.9999C26.9034 25.9999 28.7139 24.8455 29.2272 23.2832H20.2705C20.7838 24.8455 22.5942 25.9999 24.7488 25.9999Z"
            stroke="#80868E" stroke-width="1.33334" stroke-linecap="round" stroke-linejoin="round" />
        <path d="M28.3618 23.2831L24.627 16.0386L21.4258 23.2831" stroke="#80868E" stroke-width="1.33334"
            stroke-linecap="round" stroke-linejoin="round" />
        <path
            d="M14.9327 14.4879C16.4344 14.9523 18.0282 14.1114 18.4926 12.6097C18.957 11.1081 18.1162 9.51428 16.6145 9.04987C15.1128 8.58546 13.519 9.42632 13.0546 10.928C12.5902 12.4296 13.4311 14.0235 14.9327 14.4879Z"
            stroke="#80868E" stroke-width="1.33334" stroke-linejoin="bevel" />
        <path d="M5.84863 8.92383L12.9638 11.0584" stroke="#80868E" stroke-width="1.33334" stroke-linecap="round"
            stroke-linejoin="round" />
        <path d="M18.6562 12.481L25.7714 14.6155" stroke="#80868E" stroke-width="1.33334" stroke-linecap="round"
            stroke-linejoin="round" />
    </svg>

    <symbol id="cart" viewBox="0 0 35 35" fill="none">
        <path
            d="M29.8165 24.8374H14.2639C12.9796 24.8374 11.9384 23.783 11.9384 22.4822C11.9384 21.2626 12.8578 20.2448 14.0573 20.1363L29.8165 18.7124M1.50391 2.55859H5.10587C6.08807 2.55859 6.95779 3.20115 7.25767 4.14838L8.22465 7.20282M8.22465 7.20282L12.1111 19.4792C12.2434 19.8971 12.6431 20.1672 13.0749 20.1305L29.8086 18.7085C30.7251 18.6306 31.4885 17.9647 31.7003 17.0582L33.7327 8.36216C33.871 7.77036 33.4277 7.20282 32.8273 7.20282H8.22465ZM29.6172 29.549C29.6172 31.1103 28.3674 32.376 26.8258 32.376C25.2841 32.376 24.0343 31.1103 24.0343 29.549C24.0343 27.9877 25.2841 26.722 26.8258 26.722C28.3674 26.722 29.6172 27.9877 29.6172 29.549ZM17.9199 29.549C17.9199 31.1103 16.6702 32.376 15.1285 32.376C13.5868 32.376 12.3371 31.1103 12.3371 29.549C12.3371 27.9877 13.5868 26.722 15.1285 26.722C16.6702 26.722 17.9199 27.9877 17.9199 29.549Z"
            stroke="var(--icon-color, currentColor)" stroke-width="1.5" stroke-linecap="round" />
    </symbol>
    <symbol id="ukraine-logo" viewBox="0 0 24 24" fill="none">
        <path d="M11.8321 20.4754L11.8295 20.4731H11.8291L11.8321 20.4754Z" fill="white" />
        <path
            d="M17.7969 2.76198C16.3536 4.20756 15.4434 6.09995 15.2149 8.12987L14.6921 12.8518C14.6871 12.8969 14.6916 12.9426 14.7054 12.9858C14.7192 13.0291 14.742 13.0689 14.7723 13.1027C14.8025 13.1365 14.8396 13.1636 14.881 13.1821C14.9224 13.2007 14.9673 13.2103 15.0127 13.2103C15.2695 13.2103 15.5157 13.3123 15.6973 13.4939C15.8789 13.6755 15.9809 13.9217 15.9809 14.1785C15.9809 14.4353 15.8789 14.6816 15.6973 14.8632C15.5157 15.0448 15.2695 15.1468 15.0127 15.1468C14.7992 15.149 14.5863 15.1714 14.3771 15.2139C14.1308 14.7851 13.8543 14.3744 13.5496 13.9849C12.9187 13.144 12.3231 12.3496 12.3231 11.1662V7.39444C12.8565 6.59872 13.1547 5.66882 13.1838 4.71135C13.1514 3.71622 12.8299 2.75207 12.2586 1.93661C12.2271 1.89869 12.1876 1.86818 12.143 1.84723C12.0984 1.82629 12.0497 1.81543 12.0004 1.81543C11.9511 1.81543 11.9024 1.82629 11.8578 1.84723C11.8132 1.86818 11.7737 1.89869 11.7422 1.93661C11.1709 2.75207 10.8494 3.71622 10.817 4.71135C10.846 5.66882 11.1443 6.59872 11.6776 7.39444V11.1662C11.6776 12.3496 11.0821 13.1457 10.4512 13.9849C10.1465 14.3744 9.86996 14.7851 9.6237 15.2139C9.41445 15.1714 9.20162 15.149 8.98811 15.1468C8.73132 15.1468 8.48505 15.0448 8.30347 14.8632C8.12189 14.6816 8.01988 14.4353 8.01988 14.1785C8.01988 13.9217 8.12189 13.6755 8.30347 13.4939C8.48505 13.3123 8.73132 13.2103 8.98811 13.2103C9.0335 13.2103 9.07836 13.2007 9.11979 13.1821C9.16121 13.1636 9.19826 13.1365 9.22851 13.1027C9.25876 13.0689 9.28154 13.0291 9.29536 12.9858C9.30918 12.9426 9.31373 12.8969 9.30871 12.8518L8.78414 8.12987C8.55569 6.09995 7.64545 4.20756 6.20218 2.76198C6.15705 2.7169 6.09957 2.6862 6.037 2.67377C5.97443 2.66134 5.90958 2.66774 5.85064 2.69214C5.7917 2.71654 5.74132 2.75787 5.70585 2.81089C5.67038 2.86391 5.65142 2.92626 5.65137 2.99005V18.0515C5.65137 18.1371 5.68537 18.2192 5.7459 18.2797C5.80642 18.3402 5.88851 18.3742 5.97411 18.3742H9.28762C9.88319 20.284 11.6949 21.6688 11.8037 21.7506C11.8605 21.7927 11.9293 21.8154 12 21.8154C12.0706 21.8154 12.1394 21.7927 12.1962 21.7506C12.3051 21.6688 14.1167 20.284 14.7123 18.3742H18.025C18.1105 18.3742 18.1926 18.3402 18.2532 18.2797C18.3137 18.2192 18.3477 18.1371 18.3477 18.0515V2.99005C18.3476 2.92626 18.3287 2.86391 18.2932 2.81089C18.2577 2.75787 18.2074 2.71654 18.1484 2.69214C18.0895 2.66774 18.0246 2.66134 17.9621 2.67377C17.8995 2.6862 17.842 2.7169 17.7969 2.76198ZM6.29858 3.8266C7.32183 5.07675 7.96214 6.59588 8.14252 8.2013L8.6318 12.6044C8.32955 12.6738 8.05364 12.8287 7.83695 13.0506C7.62027 13.2725 7.47195 13.552 7.40968 13.8558H6.29858V3.8266ZM9.09569 17.1908C9.09693 17.3709 9.11131 17.5507 9.13873 17.7287H6.29858V14.5013H7.40667C7.48165 14.8654 7.67981 15.1926 7.96777 15.4277C8.25573 15.6628 8.61592 15.7916 8.98768 15.7923C9.10594 15.7941 9.22395 15.8036 9.34098 15.8207C9.17727 16.2589 9.09417 16.723 9.09569 17.1908ZM11.4625 4.71135C11.4817 4.02302 11.6662 3.34941 12.0004 2.74735C12.3346 3.34941 12.5191 4.02302 12.5383 4.71135C12.5191 5.39969 12.3346 6.0733 12.0004 6.67536C11.6662 6.0733 11.4817 5.39969 11.4625 4.71135ZM9.74118 17.1908C9.74016 16.7769 9.81831 16.3666 9.97141 15.982C10.3565 16.1312 10.7027 16.3659 10.9838 16.6685C11.2648 16.9711 11.4734 17.3337 11.5937 17.7287H9.79024C9.7583 17.5512 9.74189 17.3712 9.74118 17.1908ZM11.6776 20.7888C10.937 20.1194 10.3531 19.295 9.96753 18.3742H11.6776V20.7888ZM12.0004 17.0075C11.6346 16.2778 11.0155 15.7064 10.2589 15.4002C10.4753 15.0443 10.712 14.7011 10.9676 14.3722C11.3764 13.8694 11.7231 13.3192 12.0004 12.7335C12.2777 13.3192 12.6244 13.8694 13.0332 14.3722C13.2888 14.7011 13.5255 15.0443 13.7419 15.4002C12.9853 15.7064 12.3662 16.2778 12.0004 17.0075ZM12.3231 20.7888V18.3742H14.0333C13.6477 19.295 13.0638 20.1194 12.3231 20.7888ZM14.2105 17.7287H12.4071C12.5274 17.3337 12.736 16.9711 13.017 16.6685C13.2981 16.3659 13.6443 16.1312 14.0294 15.982C14.1825 16.3666 14.2606 16.7769 14.2596 17.1908C14.2589 17.3712 14.2425 17.5512 14.2105 17.7287ZM17.7022 17.7287H14.8621C14.8895 17.5507 14.9039 17.3709 14.9051 17.1908C14.9066 16.723 14.8235 16.2589 14.6598 15.8207C14.7767 15.8036 14.8946 15.7941 15.0127 15.7923C15.3844 15.7916 15.7446 15.6628 16.0326 15.4277C16.3205 15.1926 16.5187 14.8654 16.5937 14.5013H17.7022V17.7287ZM17.7022 13.8558H16.5911C16.5288 13.552 16.3805 13.2725 16.1638 13.0506C15.9471 12.8287 15.6712 12.6738 15.369 12.6044L15.8583 8.2013C16.0386 6.59588 16.679 5.07675 17.7022 3.8266V13.8558Z"
            fill="white" stroke="white" stroke-width="0.5" />
    </symbol>
    <symbol id="link-decoration" viewBox="0 0 24 24" fill="none">
        <path fill-rule="evenodd" clip-rule="evenodd"
            d="M5 2C4.44772 2 4 2.44772 4 3V6C4 6.55228 4.44772 7 5 7H18C18.5523 7 19 7.44772 19 8V21C19 21.5523 19.4477 22 20 22H23C23.5523 22 24 21.5523 24 21V3C24 2.44772 23.5523 2 23 2H5ZM9 12C9 11.4477 9.44772 11 10 11H14C14.5523 11 15 11.4477 15 12V16C15 16.5523 14.5523 17 14 17H10C9.44772 17 9 16.5523 9 16V12ZM8 22C8.55228 22 9 21.5523 9 21V18C9 17.4477 8.55228 17 8 17H5C4.44772 17 4 17.4477 4 18V21C4 21.5523 4.44772 22 5 22H8Z"
            fill="var(--icon-color, currentColor)" />
    </symbol>
    <symbol id="rich-slider-arrow" viewBox="0 0 20 20" fill="none">
        <path
            d="M10.4243 18.0611C10.1899 18.2954 9.81005 18.2954 9.57574 18.0611L8.30294 16.7883C8.06863 16.554 8.06863 16.1741 8.30294 15.9398L13.8184 10.4243C14.0527 10.19 14.0527 9.81012 13.8184 9.57581L8.30294 4.06037C8.06863 3.82606 8.06863 3.44616 8.30295 3.21184L9.57574 1.93905C9.81005 1.70474 10.19 1.70474 10.4243 1.93905L18.061 9.57581C18.2953 9.81012 18.2953 10.19 18.061 10.4243L10.4243 18.0611Z"
            fill="var(--icon-color, currentColor)" />
        <path
            d="M7.87868 12.1214C8.11299 12.3557 8.49289 12.3557 8.72721 12.1214L10.4243 10.4243C10.6586 10.19 10.6586 9.81012 10.4243 9.57581L8.72721 7.87875C8.49289 7.64444 8.11299 7.64444 7.87868 7.87875L6.18162 9.57581C5.94731 9.81012 5.94731 10.19 6.18162 10.4243L7.87868 12.1214Z"
            fill="var(--icon-color, currentColor)" />
    </symbol>
    <symbol id="tip-icon" viewBox="0 0 14 14" fill="none">
        <path d="M11.6667 5.021L5.70833 10.9793L3 8.271" stroke="var(--icon-color, currentColor)" stroke-width="1.5"
            stroke-linecap="round" stroke-linejoin="round" />
    </symbol>
    <symbol id="slider-arrow-left" viewBox="0 0 16 16">
        <path d="M11 2L5 8L11 14" stroke="var(--icon-color, currentColor)" stroke-width="2" stroke-linecap="round"
            stroke-linejoin="round" fill="none" />
    </symbol>
    <symbol id="slider-arrow-right" viewBox="0 0 16 16">
        <path d=" M5 2L11 8L5 14" stroke="var(--icon-color, currentColor)" stroke-width="2" stroke-linecap="round"
            stroke-linejoin="round" fill="none" />
    </symbol>
    <symbol id="smartphone" viewBox="0 0 40 40">
        <path fill-rule="evenodd" clip-rule="evenodd"
            d="M26 4H27C28.1046 4 29 4.89543 29 6V34C29 35.1046 28.1046 36 27 36H13C11.8954 36 11 35.1046 11 34V6C11 4.89543 11.8954 4 13 4L14 4V5C14 5.55228 14.4477 6 15 6H25C25.5523 6 26 5.55228 26 5V4ZM25 4H15V5H25V4ZM25 3H27C28.6569 3 30 4.34315 30 6V34C30 35.6569 28.6569 37 27 37H13C11.3431 37 10 35.6569 10 34V6C10 4.34315 11.3431 3 13 3H15H25Z"
            fill="#80868E" />
    </symbol>
    <symbol id="arrow-up" viewBox="0 0 14 8">
        <path d="M13 7L7 1L1 7" stroke="var(--icon-color, currentColor)" stroke-width="2" stroke-linejoin="round"
            fill="none" />
    </symbol>
    <symbol id="catalog-settings-select-arrow" viewBox="0 0 16 16" fill="none">
        <path d="M12 6L8 10L4 6" stroke="var(--icon-color, currentColor)" stroke-width="2" stroke-linecap="round"
            stroke-linejoin="round" />
    </symbol>
    <symbol id="table-of-contents-arrow" viewBox="0 0 16 16" fill="none">
        <path d="M5 2L11 8L5 14" stroke="var(--icon-color, currentColor)" stroke-width="2.5" stroke-linejoin="bevel" />
    </symbol>
    <symbol id="form-valid-tip" viewBox="0 0 18 18" fill="none">
        <path d="M15 4.5L6.75 12.75L3 9" stroke="#E4121F" stroke-width="2" stroke-linecap="round"
            stroke-linejoin="round" />
    </symbol>
    <symbol id="product-filter-fieldset-arrow" viewBox="0 0 12 15" fill="none">
        <path d="M2 6L6 10L10 6" stroke="var(--icon-color, currentColor)" stroke-linecap="round"
            stroke-linejoin="round" />
    </symbol>
    <symbol id="linkedin" viewBox="0 0 28 28" fill="none">
        <path fill-rule="evenodd" clip-rule="evenodd"
            d="M3.934 2.18883H24.1092V2.18766C25.0635 2.17483 25.8487 2.93899 25.8627 3.89449V24.1537C25.8498 25.1092 25.0647 25.8733 24.1092 25.8617H3.934C2.98083 25.8722 2.19917 25.108 2.1875 24.1537V3.89566C2.19917 2.94249 2.98083 2.17833 3.934 2.18883ZM5.41938 7.48199C5.41938 8.60666 6.33055 9.51783 7.45521 9.51783C8.57988 9.51783 9.49105 8.60666 9.49105 7.48199C9.49105 6.35733 8.57988 5.44616 7.45521 5.44616C6.33055 5.44616 5.41938 6.35733 5.41938 7.48199ZM22.3606 21.9606C22.3606 22.1815 22.1815 22.3605 21.9606 22.3605H19.2524C19.0315 22.3605 18.8524 22.1814 18.8524 21.9605V16.8667C18.8524 15.5565 18.829 13.8707 17.0277 13.8707C15.2007 13.8707 14.9207 15.2975 14.9207 16.7722V21.9605C14.9207 22.1814 14.7416 22.3605 14.5207 22.3605H11.8137C11.5928 22.3605 11.4137 22.1814 11.4137 21.9605V11.4625C11.4137 11.2416 11.5928 11.0625 11.8137 11.0625H14.3819C14.6028 11.0625 14.7819 11.2416 14.7819 11.4625V12.5763C14.7819 12.5927 14.7952 12.606 14.8115 12.606C14.8221 12.606 14.8318 12.6004 14.8372 12.5913C15.5264 11.4265 16.7977 10.7314 18.1512 10.7813C21.7072 10.7813 22.3617 13.1205 22.3617 16.162L22.3606 21.9606ZM9.20871 21.9605C9.20871 22.1814 9.02963 22.3605 8.80871 22.3605H6.09705C5.87613 22.3605 5.69705 22.1814 5.69705 21.9605V11.4625C5.69705 11.2416 5.87613 11.0625 6.09705 11.0625H8.80871C9.02963 11.0625 9.20871 11.2416 9.20871 11.4625V21.9605Z"
            fill="var(--icon-color, currentColor)" />
    </symbol>
    <symbol id="whatsapp" viewBox="0 0 28 28" fill="none">
        <path fill-rule="evenodd" clip-rule="evenodd"
            d="M14.0011 1.75C17.2484 1.75102 20.2966 3.01583 22.5894 5.31067C24.8812 7.60448 26.1429 10.6558 26.1409 13.8989C26.1378 20.5936 20.6906 26.0397 14.0001 26.0397H13.995C12.0168 26.0387 10.0715 25.5557 8.33357 24.6367C8.24336 24.589 8.13863 24.576 8.03993 24.6019L2.42869 26.0741C2.13079 26.1523 1.86002 25.8786 1.94139 25.5815L3.43733 20.1206C3.46556 20.0176 3.4511 19.9077 3.39899 19.8144C2.38984 18.0086 1.85936 15.9734 1.86035 13.8898C1.86342 7.19513 7.30956 1.75 14.0011 1.75ZM17.4629 15.4449C17.7416 15.5459 19.233 16.2799 19.5362 16.432C19.5956 16.4618 19.6512 16.4887 19.7026 16.5136L19.7028 16.5137L19.7029 16.5137C19.9139 16.6158 20.0564 16.6847 20.1171 16.7873C20.1937 16.9128 20.1937 17.5213 19.9405 18.2297C19.6873 18.9382 18.4756 19.5854 17.8927 19.6721C17.37 19.7497 16.7085 19.7824 15.9817 19.5517C15.5417 19.4118 14.9762 19.225 14.2524 18.9126C11.4068 17.6841 9.48419 14.9247 9.12307 14.4064C9.098 14.3705 9.08046 14.3453 9.07065 14.3322L9.06705 14.3274C8.90314 14.1082 7.83238 12.6763 7.83238 11.1941C7.83238 9.79921 8.51725 9.06687 8.83348 8.72872C8.85559 8.70508 8.8759 8.68336 8.89405 8.66348C9.17171 8.35927 9.50042 8.28373 9.70255 8.28373C9.90569 8.28373 10.1078 8.28475 10.2844 8.29394C10.3063 8.29502 10.3291 8.29486 10.3527 8.2947C10.5299 8.29346 10.7502 8.29193 10.9674 8.81457C11.045 9.00156 11.1562 9.27255 11.2752 9.56249L11.2756 9.56351L11.2757 9.56376C11.5431 10.2153 11.8495 10.962 11.9024 11.0665C11.979 11.2186 12.029 11.3963 11.928 11.5984C11.9122 11.6297 11.8977 11.6593 11.8838 11.6875C11.808 11.8418 11.7522 11.9552 11.6227 12.1037C11.5719 12.1631 11.5194 12.227 11.467 12.2909L11.467 12.2909L11.467 12.291L11.467 12.291C11.3626 12.4182 11.2585 12.5452 11.1674 12.6355C11.0164 12.7866 10.8581 12.95 11.0347 13.2542C11.2113 13.5584 11.8208 14.5516 12.7222 15.3561C13.6902 16.2201 14.5322 16.5852 14.9598 16.7707C15.044 16.8072 15.1121 16.8368 15.162 16.8618C15.4652 17.0139 15.6428 16.9884 15.8194 16.7863C15.997 16.5831 16.5768 15.8991 16.78 15.596C16.9831 15.2928 17.1853 15.3438 17.4629 15.4449Z"
            fill="var(--icon-color, currentColor)" />
    </symbol>
    <symbol id="facebook" viewBox="0 0 28 28" fill="none">
        <g clip-path="url(#clip0_2339_19411)">
            <path
                d="M28 14.0852C28 20.911 23.1078 26.5966 16.6429 27.8356C16.4016 27.8819 16.1817 27.694 16.1817 27.4483V18.5592C16.1817 18.3383 16.3608 18.1592 16.5817 18.1592H19.0922C19.2897 18.1592 19.4576 18.0151 19.4876 17.8199L19.9843 14.5832C20.0215 14.341 19.834 14.1225 19.5889 14.1225H16.5817C16.3608 14.1225 16.1817 13.9435 16.1817 13.7225V11.5034C16.1817 10.3985 16.723 9.32287 18.4567 9.32287H19.8172C20.0381 9.32287 20.2172 9.14379 20.2172 8.92287V6.22334C20.2172 6.02842 20.0769 5.86238 19.884 5.83453C19.3361 5.75545 18.1953 5.61287 17.0917 5.61287C13.902 5.61287 11.8183 7.54604 11.8183 11.0449V13.7214C11.8183 13.9423 11.6392 14.1214 11.4183 14.1214H8.67283C8.45192 14.1214 8.27283 14.3005 8.27283 14.5214V17.758C8.27283 17.979 8.45192 18.158 8.67283 18.158H11.4183C11.6392 18.158 11.8183 18.3371 11.8183 18.558V27.447C11.8183 27.6927 11.5983 27.8807 11.357 27.8344C4.89326 26.5942 0 20.9098 0 14.0852C0 6.3537 6.2685 0.0852051 14 0.0852051C21.7315 0.0852051 28 6.35254 28 14.0852Z"
                fill="var(--icon-color, currentColor)" />
        </g>
        <defs>
            <clipPath id="clip0_2339_19411">
                <rect width="28" height="28" fill="var(--icon-color, currentColor)" />
            </clipPath>
        </defs>
    </symbol>
    <symbol id="instagram" viewBox="0 0 28 28">
        <path fill-rule="evenodd" clip-rule="evenodd"
            d="M14 1.75C10.6731 1.75 10.2556 1.76429 8.94892 1.8235C7.05527 1.91027 5.1749 2.43702 3.80596 3.80596C2.43192 5.18 1.91027 7.05629 1.8235 8.94892C1.76429 10.2556 1.75 10.6731 1.75 14C1.75 17.3269 1.76429 17.7444 1.8235 19.0511C1.91027 20.9427 2.43906 22.8282 3.80596 24.194C5.17898 25.5671 7.05833 26.0897 8.94892 26.1765C10.2556 26.2357 10.6731 26.25 14 26.25C17.3269 26.25 17.7444 26.2357 19.0511 26.1765C20.9437 26.0897 22.8261 25.562 24.194 24.194C25.5691 22.819 26.0897 20.9437 26.1765 19.0511C26.2357 17.7444 26.25 17.3269 26.25 14C26.25 10.6731 26.2357 10.2556 26.1765 8.94892C26.0897 7.05527 25.562 5.17388 24.194 3.80596C22.8231 2.43498 20.9386 1.90925 19.0511 1.8235C17.7444 1.76429 17.3269 1.75 14 1.75ZM19.9498 6.78392C19.9498 6.32336 20.3232 5.95 20.7838 5.95C21.2443 5.95 21.6177 6.32336 21.6177 6.78392C21.6177 7.24447 21.2443 7.61783 20.7838 7.61783C20.3232 7.61783 19.9498 7.24447 19.9498 6.78392ZM20.7838 4.55C19.55 4.55 18.5498 5.55016 18.5498 6.78392C18.5498 8.01767 19.55 9.01783 20.7838 9.01783C22.0175 9.01783 23.0177 8.01767 23.0177 6.78392C23.0177 5.55016 22.0175 4.55 20.7838 4.55ZM13.9997 6.73602C9.98816 6.73602 6.73583 9.98835 6.73583 13.9999C6.73583 18.0114 9.98816 21.2638 13.9997 21.2638C18.0112 21.2638 21.2636 18.0114 21.2636 13.9999C21.2636 9.98835 18.0112 6.73602 13.9997 6.73602ZM8.13583 13.9999C8.13583 10.7616 10.7614 8.13602 13.9997 8.13602C17.238 8.13602 19.8636 10.7616 19.8636 13.9999C19.8636 17.2382 17.238 19.8638 13.9997 19.8638C10.7614 19.8638 8.13583 17.2382 8.13583 13.9999ZM9.33333 14C9.33333 11.4228 11.4228 9.33333 14 9.33333C16.5772 9.33333 18.6667 11.4228 18.6667 14C18.6667 16.5772 16.5772 18.6667 14 18.6667C11.4228 18.6667 9.33333 16.5772 9.33333 14Z"
            fill="var(--icon-color, currentColor)" />
    </symbol>
    <symbol id="to-top-arrow" viewBox="0 0 32 32">
        <path d="M8.80078 15.5498L15.5003 9.14891M15.5003 9.14891L22.1997 15.5498M15.5003 9.14891V22.8496"
            stroke="var(--icon-color, currentColor)" stroke-width="1.5" stroke-linecap="round"
            stroke-linejoin="round" />
    </symbol>
    <symbol id="copy" viewBox="0 0 32 32" fill="none">
        <path
            d="M7.5 9.5C7.5 8.94772 7.94772 8.5 8.5 8.5H25.5C26.0523 8.5 26.5 8.94772 26.5 9.5V19.5C26.5 20.0523 26.0523 20.5 25.5 20.5H8.5C7.94771 20.5 7.5 20.0523 7.5 19.5V9.5Z"
            stroke="var(--icon-color, currentColor)" />
        <path
            d="M4.5 12.5C4.5 11.9477 4.94772 11.5 5.5 11.5H22.5C23.0523 11.5 23.5 11.9477 23.5 12.5V22.5C23.5 23.0523 23.0523 23.5 22.5 23.5H5.5C4.94771 23.5 4.5 23.0523 4.5 22.5V12.5Z"
            stroke="var(--icon-color, currentColor)" />
    </symbol>
    <symbol id="rating-full-star" viewBox="0 0 12 12" fill="none">
        <path
            d="M6 0L8.04549 3.18462L11.7063 4.1459L9.30968 7.07538L9.52671 10.8541L6 9.48L2.47329 10.8541L2.69032 7.07538L0.293661 4.1459L3.95451 3.18462L6 0Z"
            fill="var(--icon-color, currentColor)" />
    </symbol>
    <symbol id="rating-half-star" viewBox="0 0 12 12" fill="none">
        <path opacity="0.5"
            d="M6 0L8.04549 3.18462L11.7063 4.1459L9.30968 7.07538L9.52671 10.8541L6 9.48L2.47329 10.8541L2.69032 7.07538L0.293661 4.1459L3.95451 3.18462L6 0Z"
            fill="var(--icon-color, currentColor)" />
        <path fill-rule="evenodd" clip-rule="evenodd"
            d="M5.99931 0L3.95381 3.18462L0.292969 4.1459L2.68963 7.07538L2.4726 10.8541L5.99931 9.48V0Z"
            fill="var(--icon-color, currentColor)" />
    </symbol>
    <symbol id="rating-empty-star" viewBox="0 0 12 12" fill="none">
        <path opacity="0.5"
            d="M6 0L8.04549 3.18462L11.7063 4.1459L9.30968 7.07538L9.52671 10.8541L6 9.48L2.47329 10.8541L2.69032 7.07538L0.293661 4.1459L3.95451 3.18462L6 0Z"
            fill="var(--icon-color, currentColor)" />
    </symbol>
    <symbol id="select-field-arrow" viewBox="0 0 16 16" fill="none">
        <path d="M14 5L8 11L2 5" stroke="var(--icon-color, currentColor)" stroke-width="2" stroke-linecap="round"
            stroke-linejoin="round" />
    </symbol>

</svg>
