<svg width="37" height="37" viewBox="0 0 37 37" fill="none" xmlns="http://www.w3.org/2000/svg">
<g clip-path="url(#clip0_2714_10186)">
<path fill-rule="evenodd" clip-rule="evenodd" d="M10.6944 25.6026C9.01237 23.7192 8.17138 21.4107 8.17138 18.6012C8.17138 15.501 9.14428 12.9091 11.1413 10.927C13.1383 8.94486 15.6986 7.9284 18.7197 7.9284C22.6113 7.9284 25.8884 9.65638 27.4758 12.0959L34.4397 8.13169C31.3674 3.25268 25.4788 0 18.7709 0C13.4967 0 9.04187 1.77881 5.40629 5.38725C1.7707 8.99569 -0.0214844 13.3665 -0.0214844 18.5504C-0.0214844 23.7344 1.82191 28.1052 5.45749 31.6628C9.14428 35.2204 13.7528 36.9992 19.3341 36.9992C24.4547 36.9992 28.6535 35.4237 31.9819 32.2727C35.3102 29.0708 37 24.8525 37 19.5161V16.4667H22.9579C23.027 16.5489 23.1082 16.6469 23.2196 16.7877C23.2875 16.8733 23.3586 16.948 23.4538 17.0408L23.4764 17.0627L23.5198 17.1044C23.6052 17.1862 23.7268 17.3028 23.8299 17.4121C24.2173 17.8229 24.5194 18.0723 24.8828 18.3724C24.9585 18.4349 25.0369 18.4996 25.1192 18.5684C25.6119 18.9801 26.1428 19.4588 26.8274 20.298L26.8299 20.3011C27.2742 20.8487 27.7531 21.5597 28.1072 22.3343C28.2953 22.7449 28.4454 23.1619 28.5592 23.5819H28.6023C28.5939 23.6042 28.5854 23.6264 28.5769 23.6485C29.5963 27.5451 27.5096 31.6873 23.7565 33.4156C19.4263 35.4099 14.2981 33.9113 11.9087 29.9864C11.0915 28.6427 10.6933 27.1979 10.6932 25.7373V25.7364C10.6932 25.6918 10.6936 25.6472 10.6944 25.6026Z" fill="#F9F9F9"/>
<path fill-rule="evenodd" clip-rule="evenodd" d="M13.1333 21.6299C13.0847 21.0818 12.6636 20.989 12.353 21.457C12.1078 21.8264 11.868 22.2396 11.7692 22.4448C10.6641 24.7519 10.741 27.159 12.0569 29.2796C14.1475 32.6458 18.682 33.978 22.5529 32.2306C26.25 30.5619 28.0387 26.3417 26.3753 22.7838C26.0677 22.1242 25.6405 21.4988 25.236 21.01C23.9543 19.4701 23.3048 19.3072 22.1798 18.1379C21.9547 17.904 21.7126 17.7174 21.462 17.4074C21.237 17.1288 21.0262 16.9028 20.7898 16.5927C20.4024 16.0803 20.0065 15.405 19.8214 14.6587C19.4055 12.9796 20.5876 11.7261 20.5904 11.2505C20.5933 10.7276 19.7701 11.169 19.5878 11.2742C17.6567 12.4041 16.429 14.6561 16.637 17.0684C16.7965 18.8999 17.3747 19.9668 18.2035 21.2702C19.0751 22.6445 19.6932 24.0503 18.42 25.3826C17.3376 26.5126 15.153 26.3785 14.2273 25.2249C13.3357 24.1187 13.2189 22.5957 13.1333 21.6299Z" fill="url(#paint0_linear_2714_10186)"/>
</g>
<defs>
<linearGradient id="paint0_linear_2714_10186" x1="13.5081" y1="11.9142" x2="7.16541" y2="38.3843" gradientUnits="userSpaceOnUse">
<stop stop-color="#F0C734"/>
<stop offset="0.666667" stop-color="#C73A1D"/>
<stop offset="1" stop-color="#D28000"/>
</linearGradient>
<clipPath id="clip0_2714_10186">
<rect width="37" height="37" fill="white"/>
</clipPath>
</defs>
</svg>
